<svg width="88" height="94" viewBox="0 0 88 94" fill="none" xmlns="http://www.w3.org/2000/svg">
<path d="M69.6079 47.6861V47.4062V47.4039V47.1241L69.725 47.2411L81.1849 35.7812C85.1047 31.8614 87.2165 26.6488 87.1312 21.1033C87.0482 15.7019 84.8238 10.6484 80.8669 6.86904L80.9469 6.7852L80.8668 6.86902C76.9743 3.14943 71.8599 1.10178 66.4706 1.10178H21.5783C16.189 1.10178 11.0745 3.14943 7.17965 6.86675C3.22039 10.6461 0.995991 15.7019 0.915304 21.101L0.799376 21.0992L0.915304 21.101C0.832296 26.6464 2.94409 31.859 6.86387 35.7811L6.86393 35.7812M69.6079 47.6861L6.78192 35.8632L6.86393 35.7812M69.6079 47.6861L69.7251 47.569M69.6079 47.6861L69.7251 47.569M6.86393 35.7812L18.3582 47.2662L18.4403 47.3482L18.3583 47.4302L6.86159 58.9269L6.86156 58.9269C2.9418 62.8444 0.829989 68.057 0.915303 73.6047L0.799376 73.6065L0.915303 73.6047C0.998296 79.0062 3.22271 84.0596 7.17968 87.8391C11.0745 91.5564 16.189 93.604 21.5783 93.604H43.9479H44.0639V93.6225H66.394C71.7833 93.6225 76.8978 91.5749 80.7927 87.8576C84.7519 84.0782 86.9763 79.0248 87.057 73.6233C87.1423 68.0779 85.0283 62.8653 81.1084 58.9431L69.7251 47.569M6.86393 35.7812L69.7251 47.569M25.1238 40.6671L25.133 40.6764L25.215 40.5944L28.8509 36.9585C33.0138 32.7956 38.4796 30.706 43.9482 30.6876H43.9484H43.9485H43.9485H43.9486H43.9487H43.9487H43.9488H43.9489H43.9489H43.949H43.9491H43.9491H43.9492H43.9493H43.9493H43.9494H43.9495H43.9496H43.9496H43.9497H43.9498H43.9498H43.9499H43.95H43.95H43.9501H43.9502H43.9502H43.9503H43.9504H43.9505H43.9505H43.9506H43.9507H43.9507H43.9508H43.9509H43.9509H43.951H43.9511H43.9512H43.9512H43.9513H43.9514H43.9514H43.9515H43.9516H43.9516H43.9517H43.9518H43.9519H43.9519H43.952H43.9521H43.9521H43.9522H43.9523H43.9524H43.9524H43.9525H43.9526H43.9526H43.9527H43.9528H43.9529H43.9529H43.953H43.9531H43.9531H43.9532H43.9533H43.9534H43.9534H43.9535H43.9536H43.9536H43.9537H43.9538H43.9539H43.9539H43.954H43.9541H43.9541H43.9542H43.9543H43.9544H43.9544H43.9545H43.9546H43.9546H43.9547H43.9548H43.9549H43.9549H43.955H43.9551H43.9552H43.9552H43.9553H43.9554H43.9554H43.9555H43.9556H43.9557H43.9557H43.9558H43.9559H43.9559H43.956H43.9561H43.9562H43.9562H43.9563H43.9564H43.9565H43.9565H43.9566H43.9567H43.9567H43.9568H43.9569H43.957H43.957H43.9571H43.9572H43.9573H43.9573H43.9574H43.9575H43.9576H43.9576H43.9577H43.9578H43.9578H43.9579H43.958H43.9581H43.9581H43.9582H43.9583H43.9584H43.9584H43.9585H43.9586H43.9587H43.9587H43.9588H43.9589H43.9589H43.959H43.9591H43.9592H43.9592H43.9593H43.9594H43.9595H43.9595H43.9596H43.9597H43.9598H43.9598H43.9599H43.96H43.9601H43.9601H43.9602H43.9603H43.9604H43.9604H43.9605H43.9606H43.9606H43.9607H43.9608H43.9609H43.9609H43.961H43.9611H43.9612H43.9612H43.9613H43.9614H43.9615H43.9615H43.9616H43.9617H43.9618H43.9618H43.9619H43.962H43.9621H43.9621H43.9622H43.9623H43.9624H43.9624H43.9625H43.9626H43.9627H43.9627H43.9628H43.9629H43.963H43.963H43.9631H43.9632H43.9632H43.9633H43.9634H43.9635H43.9635H43.9636H43.9637H43.9638H43.9638H43.9639H43.964H43.9641H43.9641H43.9642H43.9643H43.9644H43.9644H43.9645H43.9646H43.9647H43.9647H43.9648H43.9649H43.965H43.965H43.9651H43.9652H43.9653H43.9653H43.9654H43.9655H43.9656H43.9656H43.9657H43.9658H43.9659H43.9659H43.966H43.9661H43.9662H43.9662H43.9663H43.9664H43.9665H43.9665H43.9666H43.9667H43.9668H43.9668H43.9669H43.967H43.9671H43.9671H43.9672H43.9673H43.9674H43.9674H43.9675H43.9676H43.9677H43.9677H43.9678H43.9679H43.968H43.968H43.9681H43.9682H43.9683H43.9683H43.9684H43.9685H43.9686H43.9686H43.9687H43.9688H43.9688H43.9689H43.969H43.9691H43.9691H43.9692H43.9693H43.9694H43.9694H43.9695H43.9696H43.9697H43.9697H43.9698H43.9699H43.97H43.97H43.9701H43.9702H43.9703H43.9703H43.9704H43.9705H43.9706H43.9706H43.9707H43.9708H43.9709H43.9709H43.971H43.9711H43.9712H43.9712H43.9713H43.9714H43.9715H43.9715H43.9716H43.9717H43.9718H43.9718H43.9719H43.972H43.972H43.9721H43.9722H43.9723H43.9723H43.9724H43.9725H43.9726H43.9726H43.9727H43.9728H43.9729H43.9729H43.973H43.9731H43.9732H43.9732H43.9733H43.9734H43.9735H43.9735H43.9736H43.9737H43.9738H43.9738H43.9739H43.974H43.974H43.9741H43.9742H43.9743H43.9743H43.9744H43.9745H43.9746H43.9746H43.9747H43.9748H43.9749H43.9749H43.975H43.9751H43.9751H43.9752H43.9753H43.9754H43.9754H43.9755H43.9756H43.9757H43.9757H43.9758H43.9759H43.976H43.976H43.9761H43.9762H43.9762H43.9763H43.9764H43.9765H43.9765H43.9766H43.9767H43.9768H43.9768H43.9769H43.977H43.977H43.9771H43.9772H43.9773H43.9773H43.9774H43.9775H43.9776H43.9776H43.9777H43.9778H43.9778H43.9779H43.978H43.9781H43.9781H43.9782H43.9783H43.9783H43.9784H43.9785H43.9786H43.9786H43.9787H43.9788H43.9789H43.9789H43.979H43.9791H43.9791H43.9792H43.9793H43.9794H43.9794H43.9795H43.9796H43.9796H43.9797H43.9798H43.9799H43.9799H43.98H43.9801H43.9801H43.9802H43.9803H43.9804H43.9804H43.9805H43.9806H43.9806H43.9807H43.9808H43.9808H43.9809H43.981H43.9811H43.9811H43.9812H43.9813H43.9813H43.9814H43.9815H43.9816H43.9816H43.9817H43.9818H43.9818H43.9819H43.982H43.982H43.9821H43.9822H43.9823H43.9823H43.9824H43.9825H43.9825H43.9826H43.9827H43.9827H43.9828H43.9829H43.983H43.983H43.9831H43.9832H43.9832H43.9833H43.9834H43.9834H43.9835H43.9836H43.9836H43.9837H43.9838H43.9838H43.9839H43.984H43.9841H43.9841H43.9842H43.9843H43.9843H43.9844H43.9845H43.9845H43.9846H43.9847H43.9847H43.9848H43.9849H43.9849H43.985H43.9851H43.9852H43.9853H43.9853H43.9854H43.9855H43.9856H43.9857H43.9857H43.9858H43.9859H43.986H43.9861H43.9861H43.9862H43.9863H43.9864H43.9865H43.9866H43.9866H43.9867H43.9868H43.9869H43.987H43.987H43.9871H43.9872H43.9873H43.9874H43.9874H43.9875H43.9876H43.9877H43.9878H43.9878H43.9879H43.988H43.9881H43.9882H43.9882H43.9883H43.9884H43.9885H43.9886H43.9886H43.9887H43.9888H43.9889H43.9889H43.989H43.9891H43.9892H43.9893H43.9893H43.9894H43.9895H43.9896H43.9897H43.9897H43.9898H43.9899H43.99H43.9901H43.9901H43.9902H43.9903H43.9904H43.9904H43.9905H43.9906H43.9907H43.9908H43.9908H43.9909H43.991H43.9911H43.9911H43.9912H43.9913H43.9914H43.9915H43.9915H43.9916H43.9917H43.9918H43.9918H43.9919H43.992H43.9921H43.9922H43.9922H43.9923H43.9924H43.9925H43.9925H43.9926H43.9927H43.9928H43.9929H43.9929H43.993H43.9931H43.9932H43.9932H43.9933H43.9934H43.9935H43.9935H43.9936H43.9937H43.9938H43.9939H43.9939H43.994H43.9941H43.9942H43.9942H43.9943H43.9944H43.9945H43.9945H43.9946H43.9947H43.9948H43.9949H43.9949H43.995H43.9951H43.9952H43.9952H43.9953H43.9954H43.9955H43.9955H43.9956H43.9957H43.9958H43.9958H43.9959H43.996H43.9961H43.9962H43.9962H43.9963H43.9964H43.9965H43.9965H43.9966H43.9967H43.9968H43.9968H43.9969H43.997H43.9971H43.9971H43.9972H43.9973H43.9974H43.9974H43.9975H43.9976H43.9977H43.9977H43.9978H43.9979H43.998H43.998H43.9981H43.9982H43.9983H43.9983H43.9984H43.9985H43.9986H43.9986H43.9987H43.9988H43.9989H43.999H43.999H43.9991H43.9992H43.9993H43.9993H43.9994H43.9995H43.9996H43.9996H43.9997H43.9998H43.9999H43.9999H44H44.0001H44.0002H44.0002H44.0003H44.0004H44.0005H44.0005H44.0006H44.0007H44.0008H44.0008H44.0009H44.001H44.0011H44.0011H44.0012H44.0013H44.0014H44.0014H44.0015H44.0016H44.0017H44.0017H44.0018H44.0019H44.002H44.002H44.0021H44.0022H44.0023H44.0023H44.0024H44.0025H44.0026H44.0026H44.0027H44.0028H44.0029H44.0029H44.003H44.0031H44.0032H44.0032H44.0033H44.0034H44.0034H44.0035H44.0036H44.0037H44.0037H44.0038H44.0039H44.004H44.004H44.0041H44.0042H44.0043H44.0043H44.0044H44.0045H44.0046H44.0046H44.0047H44.0048H44.0049H44.0049H44.005H44.0051H44.0052H44.0052H44.0053H44.0054H44.0055H44.0055H44.0056H44.0057H44.0058H44.0058H44.0059H44.006H44.0061H44.0061H44.0062H44.0063H44.0064H44.0064H44.0065H44.0066H44.0067H44.0067H44.0068H44.0069H44.007H44.007H44.0071H44.0072H44.0073H44.0073H44.0074H44.0075H44.0076H44.0076H44.0077H44.0078H44.0079H44.0079H44.008H44.0081H44.0082H44.0082H44.0083H44.0084H44.0085H44.0085H44.0086H44.0087H44.0088H44.0088H44.0089H44.009H44.0091H44.0091H44.0092H44.0093H44.0094H44.0094H44.0095H44.0096H44.0097H44.0097H44.0098H44.0099H44.01H44.01H44.0101H44.0102H44.0103H44.0103H44.0104H44.0105H44.0106H44.0106H44.0107H44.0108H44.0109H44.0109H44.011H44.0111H44.0112H44.0112H44.0113H44.0114H44.0115H44.0115H44.0116H44.0117H44.0118H44.0118H44.0119H44.012H44.0121H44.0121H44.0122H44.0123H44.0124H44.0125H44.0125H44.0126H44.0127H44.0128H44.0128H44.0129H44.013H44.0131H44.0131H44.0132H44.0133H44.0134H44.0134H44.0135H44.0136H44.0137H44.0137H44.0138H44.0139H44.014H44.0141H44.0141H44.0142H44.0143H44.0144H44.0144H44.0145H44.0146H44.0147H44.0147H44.0148H44.0149H44.015H44.015H44.0151H44.0152H44.0153H44.0154H44.0154H44.0155H44.0156H44.0157H44.0157H44.0158H44.0159H44.016H44.016H44.0161H44.0162H44.0163H44.0164H44.0164H44.0165H44.0166H44.0167H44.0167H44.0168H44.0169H44.017H44.0171H44.0171H44.0172H44.0173H44.0174H44.0174H44.0175H44.0176H44.0177H44.0177H44.0178H44.0179H44.018H44.0181H44.0181H44.0182H44.0183H44.0184H44.0185H44.0185H44.0186H44.0187H44.0188H44.0188H44.0189H44.019H44.0191H44.0192H44.0192H44.0193H44.0194H44.0195H44.0195H44.0196H44.0197H44.0198H44.0199H44.0199H44.02H44.0201H44.0202H44.0203H44.0203H44.0204H44.0205H44.0206H44.0207H44.0207H44.0208H44.0209H44.021H44.021H44.0211H44.0212H44.0213H44.0214H44.0214H44.0215H44.0216H44.0217H44.0218H44.0218H44.0219H44.022H44.0221H44.0222H44.0222H44.0223H44.0224H44.0225H44.0226H44.0226H44.0227H44.0228H44.0229H44.023H44.0231H44.0231H44.0232H44.0233H44.0234H44.0235H44.0235H44.0236H44.0237H44.0238H44.0239H44.0239H44.024C49.4834 30.7083 54.9377 32.7956 59.0959 36.9492C59.0959 36.9492 59.096 36.9492 59.096 36.9492L62.8037 40.6547L62.8857 40.7366L62.9677 40.6546L74.5154 29.1069C76.6152 27.0071 77.7451 24.2151 77.7006 21.2436C77.6115 15.3356 72.5709 10.5347 66.4706 10.5347H21.5783C15.478 10.5347 10.4374 15.3356 10.3483 21.2436C10.304 24.1991 11.4214 26.9769 13.4995 29.0728V29.0753L13.5335 29.1093L25.0302 40.5967L25.1122 40.6786L25.1238 40.6671ZM35.5228 43.6257L31.9712 47.1773L31.9619 47.168L31.8799 47.2501L31.8777 47.2523L31.8776 47.2524L31.8661 47.2639L31.784 47.346L31.8661 47.428L35.5437 51.101L35.5438 51.101C37.8852 53.4378 40.9597 54.6085 44.0337 54.6085C47.11 54.6085 50.1845 53.4378 52.526 51.0963L56.1341 47.4882L56.2161 47.4062L56.1341 47.3242L52.4286 43.6211L52.4286 43.621C50.0988 41.2959 47.043 40.1276 43.9855 40.1159L43.9847 40.1159C40.9201 40.1229 37.8573 41.2912 35.5228 43.6257ZM43.9085 84.1687V84.1873H44.0244H66.394C72.4943 84.1873 77.5349 79.3864 77.6241 73.4784C77.6686 70.5069 76.5387 67.7149 74.4388 65.6151L74.3569 65.697L74.4388 65.615L62.9723 54.1578L62.8903 54.0758L62.8083 54.1578L59.1979 57.7682L59.1979 57.7682C55.0189 61.9495 49.5231 64.0391 44.0337 64.0391C38.5443 64.0391 33.0554 61.9518 28.8764 57.7751L28.7944 57.8571L28.8764 57.7751L25.1964 54.0975L25.1145 54.0155L25.0325 54.0975L13.5335 65.5965C11.4336 67.6964 10.3037 70.4883 10.3483 73.4599C10.4374 79.3678 15.478 84.1687 21.5783 84.1687H43.9085Z" fill="url(#paint0_linear_554_29266)" stroke="url(#paint1_linear_554_29266)" stroke-width="0.231882"/>
<defs>
<linearGradient id="paint0_linear_554_29266" x1="42.0726" y1="-136.331" x2="215.325" y2="-8.25173" gradientUnits="userSpaceOnUse">
<stop stop-color="white"/>
<stop offset="1" stop-color="#97A99E"/>
</linearGradient>
<linearGradient id="paint1_linear_554_29266" x1="42.0726" y1="-136.331" x2="215.325" y2="-8.25173" gradientUnits="userSpaceOnUse">
<stop stop-color="white"/>
<stop offset="1" stop-color="#97A99E"/>
</linearGradient>
</defs>
</svg>
