<svg width="87" height="95" viewBox="0 0 87 95" fill="none" xmlns="http://www.w3.org/2000/svg">
<path d="M79.161 19.1305L79.161 19.1302C78.8427 12.445 73.079 7.2986 66.3581 7.2986H25.7322C16.0234 7.2986 7.88881 15.2607 8.10317 24.9444C8.26483 31.7016 12.0069 37.8951 17.9587 41.208L79.161 19.1305ZM79.161 19.1305C79.5067 26.2839 73.7892 32.2139 66.7166 32.2139V32.6776C66.7166 32.2139 66.7166 32.2139 66.7164 32.2139H66.7159H66.7149H66.7136H66.7118H66.7097H66.7073H66.7044H66.7012H66.6976H66.6936H66.6893H66.6845H66.6794H66.674H66.6682H66.662H66.6554H66.6485H66.6412H66.6336H66.6256H66.6172H66.6085H66.5994H66.59H66.5802H66.5701H66.5596H66.5488H66.5376H66.5261H66.5142H66.502H66.4894H66.4765H66.4633H66.4497H66.4358H66.4215H66.4069H66.3919H66.3767H66.3611H66.3451H66.3289H66.3123H66.2953H66.2781H66.2605H66.2426H66.2244H66.2058H66.187H66.1678H66.1483H66.1284H66.1083H66.0879H66.0671H66.046H66.0246H66.0029H65.9809H65.9586H65.936H65.913H65.8898H65.8663H65.8424H65.8183H65.7938H65.7691H65.7441H65.7187H65.6931H65.6672H65.641H65.6145H65.5877H65.5606H65.5333H65.5056H65.4777H65.4495H65.421H65.3922H65.3631H65.3338H65.3042H65.2743H65.2441H65.2137H65.183H65.152H65.1208H65.0892H65.0574H65.0254H64.9931H64.9605H64.9276H64.8945H64.8612H64.8275H64.7936H64.7595H64.7251H64.6904H64.6555H64.6204H64.585H64.5493H64.5134H64.4772H64.4408H64.4042H64.3673H64.3302H64.2928H64.2552H64.2174H64.1793H64.1409H64.1024H64.0636H64.0246H63.9853H63.9458H63.9061H63.8662H63.826H63.7856H63.745H63.7042H63.6631H63.6218H63.5803H63.5386H63.4966H63.4545H63.4121H63.3695H63.3268H63.2838H63.2405H63.1971H63.1535H63.1097H63.0656H63.0214H62.9769H62.9323H62.8874H62.8424H62.7972H62.7517H62.7061H62.6603H62.6143H62.568H62.5216H62.4751H62.4283H62.3813H62.3342H62.2868H62.2393H62.1916H62.1437H62.0957H62.0475H61.999H61.9505H61.9017H61.8528H61.8037H61.7544H61.7049H61.6553H61.6055H61.5556H61.5055H61.4552H61.4048H61.3542H61.3034H61.2525H61.2014H61.1502H61.0988H61.0473H60.9956H60.9437H60.8917H60.8396H60.7873H60.7348H60.6823H60.6295H60.5767H60.5237H60.4705H60.4172H60.3638H60.3102H60.2565H60.2027H60.1487H60.0946H60.0404H59.986H59.9315H59.8769H59.8221H59.7673H59.7123H59.6572H59.6019H59.5466H59.4911H59.4355H59.3798H59.324H59.268H59.212H59.1558H59.0996H59.0432H58.9867H58.9301H58.8734H58.8166H58.7597H58.7027H58.6456H58.5883H58.531H58.4736H58.4161H58.3585H58.3009H58.2431H58.1852H58.1272H58.0692H58.0111H57.9528H57.8945H57.8361H57.7777H57.7191H57.6605H57.6018H57.543H57.4841H57.4252H57.3661H57.3071H57.2479H57.1887H57.1294H57.07H57.0106H56.9511H56.8915H56.8319H56.7722H56.7124H56.6526H56.5928H56.5328H56.4729H56.4128H56.3527H56.2926H56.2324H56.1722H56.1119H56.0516H55.9912H55.9307H55.8703H55.8098H55.7492H55.6886H55.628H55.5673H55.5066H55.4459H55.3851H55.3243H55.2634H55.2026H55.1417H55.0807H55.0198H54.9588H54.8978H54.8368H54.7757H54.7147H54.6536H54.5925H54.5313H54.4702H54.409H54.3479H54.2867H54.2255H54.1643H54.1031H54.0419H53.9807H53.9194H53.8582H53.797H53.7357H53.6745H53.6133H53.552H53.4908H53.4296H53.3684H53.3072H53.246H53.1848H53.1236H53.0624H53.0013H52.9401H52.879H52.8179H52.7568H52.6957H52.6347H52.5736H52.5126H52.4517H52.3907H52.3298H52.2689H52.208H52.1472H52.0863H52.0256H51.9648H51.9041H51.8434H51.7828H51.7222H51.6617H51.6011H51.5407H51.4802H51.4198H51.3595H51.2992H51.239H51.1788H51.1186H51.0585H50.9985H50.9385H50.8786H50.8187H50.7589H50.6991H50.6395H50.5798H50.5203H50.4607H50.4013H50.3419H50.2826H50.2234H50.1642H50.1051H50.0461H49.9872H49.9283H49.8695H49.8108H49.7521H49.6936H49.6351H49.5767H49.5184H49.4601H49.402H49.3439H49.286H49.2281H49.1703H49.1126H49.055H48.9975H48.9401H48.8828H48.8256H48.7684H48.7114H48.6545H48.5977H48.541H48.4844H48.4279H48.3715H48.3152H48.259H48.203H48.147H48.0912H48.0355H47.9799H47.9244H47.869H47.8138H47.7586H47.7036H47.6488H47.594H47.5394H47.4849H47.4305H47.3762H47.3221H47.2682H47.2143H47.1606H47.107H47.0536H47.0003H46.9471H46.8941H46.8412H46.7884H46.7359H46.6834H46.6311H46.5789H46.5269H46.4751H46.4234H46.3718H46.3204H46.2692H46.2181H46.1671H46.1164H46.0658H46.0153H45.965H45.9149H45.8649H45.8151H45.7655H45.716H45.6667H45.6176H45.5687H45.5199H45.4713H45.4229H45.3746H45.3265H45.2786H45.2309H45.1834H45.1361H45.0889H45.0419H44.9951H44.9485H44.9021H44.8559H44.8098H44.764H44.7183H44.6729H44.6276H44.5826H44.5377H44.493H44.4486H44.4043H44.3603H44.3164H44.2728H44.2293H44.1861H44.1431H44.1003H44.0577H44.0153H43.9731H43.9312H43.8894H43.8479H43.8066H43.7655H43.7246H43.684H43.6436H43.6034H43.5634H43.5237H43.4842H43.4449H43.4059H43.3671H43.3285C41.6382 32.2139 40.2722 33.5799 40.2722 35.2702V53.5687L17.9595 41.2084L79.161 19.1305ZM72.5956 47.7722L72.5954 47.7722L56.6503 38.9333H66.7166C77.2878 38.9333 85.8799 30.3412 85.8799 19.77C85.8799 9.19973 77.2887 0.579206 66.7166 0.579206H25.2909C12.0996 0.579206 1.38389 11.2949 1.38389 24.4863C1.38389 33.8672 6.49546 42.5169 14.6958 47.0664L14.6959 47.0665L30.6411 55.9054H20.5747C9.97551 55.9054 1.38389 64.5255 1.38389 75.0962C1.38389 85.6674 9.97595 94.2594 20.5471 94.2594H61.9728C75.1637 94.2594 85.8791 83.5444 85.8799 70.3538C85.908 60.9717 80.7958 52.3217 72.5956 47.7722ZM8.13035 75.7085L8.13033 75.7081C7.78463 68.5548 13.5021 62.6248 20.5747 62.6248H43.9628C45.6531 62.6248 47.0192 61.2588 47.0192 59.5685V41.2699L69.3327 53.6307L69.3333 53.631C75.2823 56.9151 78.999 63.1347 79.1606 69.8946L79.1606 69.8951C79.402 79.5777 71.2684 87.54 61.5591 87.54H20.9333C14.2123 87.54 8.44869 82.3936 8.13035 75.7085Z" fill="url(#paint0_linear_555_1551)" stroke="url(#paint1_linear_555_1551)" stroke-width="0.927526"/>
<defs>
<linearGradient id="paint0_linear_555_1551" x1="41.7464" y1="-136.274" x2="213.194" y2="-13.7574" gradientUnits="userSpaceOnUse">
<stop stop-color="white"/>
<stop offset="1" stop-color="#97A99E"/>
</linearGradient>
<linearGradient id="paint1_linear_555_1551" x1="41.7464" y1="-136.274" x2="213.194" y2="-13.7574" gradientUnits="userSpaceOnUse">
<stop stop-color="white"/>
<stop offset="1" stop-color="#97A99E"/>
</linearGradient>
</defs>
</svg>
